<?xml version="1.0" encoding="UTF-8" standalone="no"?>
<!DOCTYPE svg PUBLIC "-//W3C//DTD SVG 1.0//EN"
 "http://www.w3.org/TR/2001/REC-SVG-20010904/DTD/svg10.dtd" [
 <!ATTLIST svg xmlns:xlink CDATA #FIXED "http://www.w3.org/1999/xlink">
]>
<!-- Generated by dot version 2.6 (Tue Oct 18 06:51:15 UTC 2005)
     For user: (joakim) Joakim Erdfelt -->
<!-- Title: dom4j_dom4j_1_6_1_pom_graph Pages: 1 -->
<svg width="725pt" height="563pt"
 viewBox = "0 0 725 563"
 xmlns="http://www.w3.org/2000/svg" xmlns:xlink="http://www.w3.org/1999/xlink">
<g id="graph0" class="graph" style="font-family:Times-Roman;font-size:14.00;">
<title>dom4j_dom4j_1_6_1_pom_graph</title>
<!-- dom4j_dom4j_1_6_1_jar -->
<g id="node1" class="node"><title>dom4j_dom4j_1_6_1_jar</title>
<polygon style="fill:none;stroke:black;" points="76,349 2,349 2,365 76,365 76,349"/>
<text text-anchor="middle" x="39" y="359" style="font-size:6.54;">dom4j_dom4j_1_6_1_jar</text>
</g>
<!-- msv_relaxngDatatype_20030807_jar -->
<g id="node3" class="node"><title>msv_relaxngDatatype_20030807_jar</title>
<polygon style="fill:none;stroke:black;" points="389,200 285,200 285,216 389,216 389,200"/>
<text text-anchor="middle" x="337" y="210" style="font-size:6.54;">msv_relaxngDatatype_20030807_jar</text>
</g>
<!-- dom4j_dom4j_1_6_1_jar&#45;&gt;msv_relaxngDatatype_20030807_jar -->
<g id="edge2" class="edge"><title>dom4j_dom4j_1_6_1_jar&#45;&gt;msv_relaxngDatatype_20030807_jar</title>
<path style="fill:none;stroke:black;" d="M46,349C56,337 74,317 93,304 170,252 197,250 285,221 288,220 291,219 294,218"/>
<polygon style="fill:black;stroke:black;" points="293,216 299,216 294,219 293,216"/>
</g>
<!-- xml_apis_xml_apis_2_0_2_jar -->
<g id="node14" class="node"><title>xml_apis_xml_apis_2_0_2_jar</title>
<polygon style="fill:none;stroke:black;" points="723,126 634,126 634,143 723,143 723,126"/>
<text text-anchor="middle" x="678" y="137" style="font-size:6.54;">xml_apis_xml_apis_2_0_2_jar</text>
</g>
<!-- dom4j_dom4j_1_6_1_jar&#45;&gt;xml_apis_xml_apis_2_0_2_jar -->
<g id="edge78" class="edge"><title>dom4j_dom4j_1_6_1_jar&#45;&gt;xml_apis_xml_apis_2_0_2_jar</title>
<path style="fill:none;stroke:black;" d="M40,349C44,295 70,7 231,7 231,7 231,7 454,7 540,7 547,61 617,109 625,115 626,118 634,122 636,123 638,123 639,124"/>
<polygon style="fill:black;stroke:black;" points="640,123 644,126 638,126 640,123"/>
</g>
<!-- xerces_xercesImpl_2_6_2_jar -->
<g id="node16" class="node"><title>xerces_xercesImpl_2_6_2_jar</title>
<polygon style="fill:none;stroke:black;" points="497,268 412,268 412,285 497,285 497,268"/>
<text text-anchor="middle" x="454" y="278" style="font-size:6.54;">xerces_xercesImpl_2_6_2_jar</text>
</g>
<!-- dom4j_dom4j_1_6_1_jar&#45;&gt;xerces_xercesImpl_2_6_2_jar -->
<g id="edge12" class="edge"><title>dom4j_dom4j_1_6_1_jar&#45;&gt;xerces_xercesImpl_2_6_2_jar</title>
<path style="fill:none;stroke:black;" d="M41,365C45,386 59,440 93,463 201,539 283,560 389,483 422,459 446,331 452,289"/>
<polygon style="fill:black;stroke:black;" points="451,289 453,285 454,289 451,289"/>
</g>
<!-- stax_stax_api_1_0_jar -->
<g id="node19" class="node"><title>stax_stax_api_1_0_jar</title>
<polygon style="fill:none;stroke:black;" points="370,225 304,225 304,242 370,242 370,225"/>
<text text-anchor="middle" x="337" y="236" style="font-size:6.54;">stax_stax_api_1_0_jar</text>
</g>
<!-- dom4j_dom4j_1_6_1_jar&#45;&gt;stax_stax_api_1_0_jar -->
<g id="edge70" class="edge"><title>dom4j_dom4j_1_6_1_jar&#45;&gt;stax_stax_api_1_0_jar</title>
<path style="fill:none;stroke:black;" d="M55,349C94,328 195,277 285,246 289,244 294,243 299,242"/>
<polygon style="fill:black;stroke:black;" points="299,240 304,240 299,243 299,240"/>
</g>
<!-- jaxen_jaxen_1_1_beta_6_jar -->
<g id="node21" class="node"><title>jaxen_jaxen_1_1_beta_6_jar</title>
<polygon style="fill:none;stroke:black;" points="177,169 94,169 94,186 177,186 177,169"/>
<text text-anchor="middle" x="135" y="180" style="font-size:6.54;">jaxen_jaxen_1_1_beta_6_jar</text>
</g>
<!-- dom4j_dom4j_1_6_1_jar&#45;&gt;jaxen_jaxen_1_1_beta_6_jar -->
<g id="edge72" class="edge"><title>dom4j_dom4j_1_6_1_jar&#45;&gt;jaxen_jaxen_1_1_beta_6_jar</title>
<path style="fill:none;stroke:black;" d="M41,349C47,326 64,263 93,218 101,207 111,196 120,189"/>
<polygon style="fill:black;stroke:black;" points="119,187 124,186 121,190 119,187"/>
</g>
<!-- jaxme_jaxme_api_0_3_jar -->
<g id="node26" class="node"><title>jaxme_jaxme_api_0_3_jar</title>
<polygon style="fill:none;stroke:black;" points="376,311 298,311 298,327 376,327 376,311"/>
<text text-anchor="middle" x="337" y="321" style="font-size:6.54;">jaxme_jaxme_api_0_3_jar</text>
</g>
<!-- dom4j_dom4j_1_6_1_jar&#45;&gt;jaxme_jaxme_api_0_3_jar -->
<g id="edge24" class="edge"><title>dom4j_dom4j_1_6_1_jar&#45;&gt;jaxme_jaxme_api_0_3_jar</title>
<path style="fill:none;stroke:black;" d="M76,350C82,349 87,348 93,347 163,337 244,328 293,323"/>
<polygon style="fill:black;stroke:black;" points="293,322 298,323 293,325 293,322"/>
</g>
<!-- xalan_xalan_2_5_1_jar -->
<g id="node28" class="node"><title>xalan_xalan_2_5_1_jar</title>
<polygon style="fill:none;stroke:black;" points="371,336 302,336 302,353 371,353 371,336"/>
<text text-anchor="middle" x="337" y="347" style="font-size:6.54;">xalan_xalan_2_5_1_jar</text>
</g>
<!-- dom4j_dom4j_1_6_1_jar&#45;&gt;xalan_xalan_2_5_1_jar -->
<g id="edge28" class="edge"><title>dom4j_dom4j_1_6_1_jar&#45;&gt;xalan_xalan_2_5_1_jar</title>
<path style="fill:none;stroke:black;" d="M76,356C133,353 240,349 298,346"/>
<polygon style="fill:black;stroke:black;" points="298,344 302,346 298,347 298,344"/>
</g>
<!-- xpp3_xpp3_1_1_3_3_jar -->
<g id="node31" class="node"><title>xpp3_xpp3_1_1_3_3_jar</title>
<polygon style="fill:none;stroke:black;" points="374,361 300,361 300,378 374,378 374,361"/>
<text text-anchor="middle" x="337" y="372" style="font-size:6.54;">xpp3_xpp3_1_1_3_3_jar</text>
</g>
<!-- dom4j_dom4j_1_6_1_jar&#45;&gt;xpp3_xpp3_1_1_3_3_jar -->
<g id="edge30" class="edge"><title>dom4j_dom4j_1_6_1_jar&#45;&gt;xpp3_xpp3_1_1_3_3_jar</title>
<path style="fill:none;stroke:black;" d="M76,358C132,361 236,365 295,368"/>
<polygon style="fill:black;stroke:black;" points="295,366 300,368 295,370 295,366"/>
</g>
<!-- msv_xsdlib_20030807_jar -->
<g id="node40" class="node"><title>msv_xsdlib_20030807_jar</title>
<polygon style="fill:none;stroke:black;" points="375,386 299,386 299,403 375,403 375,386"/>
<text text-anchor="middle" x="337" y="397" style="font-size:6.54;">msv_xsdlib_20030807_jar</text>
</g>
<!-- dom4j_dom4j_1_6_1_jar&#45;&gt;msv_xsdlib_20030807_jar -->
<g id="edge52" class="edge"><title>dom4j_dom4j_1_6_1_jar&#45;&gt;msv_xsdlib_20030807_jar</title>
<path style="fill:none;stroke:black;" d="M76,363C82,364 87,364 93,365 163,375 244,385 293,390"/>
<polygon style="fill:black;stroke:black;" points="293,389 298,391 293,391 293,389"/>
</g>
<!-- stax_stax_ri_1_0_jar -->
<g id="node46" class="node"><title>stax_stax_ri_1_0_jar</title>
<polygon style="fill:none;stroke:black;" points="368,412 306,412 306,428 368,428 368,412"/>
<text text-anchor="middle" x="337" y="422" style="font-size:6.54;">stax_stax_ri_1_0_jar</text>
</g>
<!-- dom4j_dom4j_1_6_1_jar&#45;&gt;stax_stax_ri_1_0_jar -->
<g id="edge58" class="edge"><title>dom4j_dom4j_1_6_1_jar&#45;&gt;stax_stax_ri_1_0_jar</title>
<path style="fill:none;stroke:black;" d="M57,365C67,370 81,376 93,379 165,400 253,411 301,417"/>
<polygon style="fill:black;stroke:black;" points="301,415 306,417 301,418 301,415"/>
</g>
<!-- pull_parser_pull_parser_2_jar -->
<g id="node48" class="node"><title>pull_parser_pull_parser_2_jar</title>
<polygon style="fill:none;stroke:black;" points="380,437 293,437 293,454 380,454 380,437"/>
<text text-anchor="middle" x="337" y="447" style="font-size:6.54;">pull_parser_pull_parser_2_jar</text>
</g>
<!-- dom4j_dom4j_1_6_1_jar&#45;&gt;pull_parser_pull_parser_2_jar -->
<g id="edge50" class="edge"><title>dom4j_dom4j_1_6_1_jar&#45;&gt;pull_parser_pull_parser_2_jar</title>
<path style="fill:none;stroke:black;" d="M47,365C57,376 75,392 93,400 157,430 238,440 288,443"/>
<polygon style="fill:black;stroke:black;" points="288,442 293,444 288,445 288,442"/>
</g>
<!-- junitperf_junitperf_1_8_jar -->
<g id="node73" class="node"><title>junitperf_junitperf_1_8_jar</title>
<polygon style="fill:none;stroke:black;" points="377,462 297,462 297,479 377,479 377,462"/>
<text text-anchor="middle" x="337" y="473" style="font-size:6.54;">junitperf_junitperf_1_8_jar</text>
</g>
<!-- dom4j_dom4j_1_6_1_jar&#45;&gt;junitperf_junitperf_1_8_jar -->
<g id="edge84" class="edge"><title>dom4j_dom4j_1_6_1_jar&#45;&gt;junitperf_junitperf_1_8_jar</title>
<path style="fill:none;stroke:black;" d="M43,365C50,381 67,414 93,430 155,468 240,473 292,473"/>
<polygon style="fill:black;stroke:black;" points="292,471 297,473 292,474 292,471"/>
</g>
<!-- jdom_jdom_1_0_jar -->
<g id="node4" class="node"><title>jdom_jdom_1_0_jar</title>
<polygon style="fill:none;stroke:black;" points="262,101 200,101 200,118 262,118 262,101"/>
<text text-anchor="middle" x="231" y="112" style="font-size:6.54;">jdom_jdom_1_0_jar</text>
</g>
<!-- jaxen_jaxen_1_0_FCS_jar -->
<g id="node6" class="node"><title>jaxen_jaxen_1_0_FCS_jar</title>
<polygon style="fill:none;stroke:black;" points="376,38 298,38 298,55 376,55 376,38"/>
<text text-anchor="middle" x="337" y="49" style="font-size:6.54;">jaxen_jaxen_1_0_FCS_jar</text>
</g>
<!-- jdom_jdom_1_0_jar&#45;&gt;jaxen_jaxen_1_0_FCS_jar -->
<g id="edge4" class="edge"><title>jdom_jdom_1_0_jar&#45;&gt;jaxen_jaxen_1_0_FCS_jar</title>
<path style="fill:none;stroke:black;" d="M237,101C247,90 265,70 285,59 287,58 291,56 293,55"/>
<polygon style="fill:black;stroke:black;" points="293,53 298,53 294,56 293,53"/>
</g>
<!-- xerces_xerces_2_6_0_jar -->
<g id="node54" class="node"><title>xerces_xerces_2_6_0_jar</title>
<polygon style="fill:none;stroke:black;" points="374,63 300,63 300,80 374,80 374,63"/>
<text text-anchor="middle" x="337" y="74" style="font-size:6.54;">xerces_xerces_2_6_0_jar</text>
</g>
<!-- jdom_jdom_1_0_jar&#45;&gt;xerces_xerces_2_6_0_jar -->
<g id="edge60" class="edge"><title>jdom_jdom_1_0_jar&#45;&gt;xerces_xerces_2_6_0_jar</title>
<path style="fill:none;stroke:black;" d="M247,101C257,95 271,89 285,84 288,83 292,82 295,81"/>
<polygon style="fill:black;stroke:black;" points="295,80 299,80 295,82 295,80"/>
</g>
<!-- saxpath_saxpath_1_0_FCS_jar -->
<g id="node56" class="node"><title>saxpath_saxpath_1_0_FCS_jar</title>
<polygon style="fill:none;stroke:black;" points="381,88 292,88 292,105 381,105 381,88"/>
<text text-anchor="middle" x="337" y="99" style="font-size:6.54;">saxpath_saxpath_1_0_FCS_jar</text>
</g>
<!-- jdom_jdom_1_0_jar&#45;&gt;saxpath_saxpath_1_0_FCS_jar -->
<g id="edge62" class="edge"><title>jdom_jdom_1_0_jar&#45;&gt;saxpath_saxpath_1_0_FCS_jar</title>
<path style="fill:none;stroke:black;" d="M262,106C270,105 278,104 287,102"/>
<polygon style="fill:black;stroke:black;" points="287,101 292,102 287,104 287,101"/>
</g>
<!-- xml_apis_xml_apis_2_0_0_jar -->
<g id="node69" class="node"><title>xml_apis_xml_apis_2_0_0_jar</title>
<polygon style="fill:none;stroke:black;" points="381,114 292,114 292,130 381,130 381,114"/>
<text text-anchor="middle" x="337" y="124" style="font-size:6.54;">xml_apis_xml_apis_2_0_0_jar</text>
</g>
<!-- jdom_jdom_1_0_jar&#45;&gt;xml_apis_xml_apis_2_0_0_jar -->
<g id="edge80" class="edge"><title>jdom_jdom_1_0_jar&#45;&gt;xml_apis_xml_apis_2_0_0_jar</title>
<path style="fill:none;stroke:black;" d="M262,113C270,114 279,115 288,116"/>
<polygon style="fill:black;stroke:black;" points="288,115 292,117 288,118 288,115"/>
</g>
<!-- xalan_xalan_2_5_0_jar -->
<g id="node71" class="node"><title>xalan_xalan_2_5_0_jar</title>
<polygon style="fill:none;stroke:black;" points="371,139 302,139 302,156 371,156 371,139"/>
<text text-anchor="middle" x="337" y="150" style="font-size:6.54;">xalan_xalan_2_5_0_jar</text>
</g>
<!-- jdom_jdom_1_0_jar&#45;&gt;xalan_xalan_2_5_0_jar -->
<g id="edge82" class="edge"><title>jdom_jdom_1_0_jar&#45;&gt;xalan_xalan_2_5_0_jar</title>
<path style="fill:none;stroke:black;" d="M247,118C257,123 271,130 285,135 289,136 293,137 298,139"/>
<polygon style="fill:black;stroke:black;" points="298,137 302,140 298,140 298,137"/>
</g>
<!-- jaxen_jaxen_1_1_beta_4_jar -->
<g id="node7" class="node"><title>jaxen_jaxen_1_1_beta_4_jar</title>
<polygon style="fill:none;stroke:black;" points="378,250 295,250 295,267 378,267 378,250"/>
<text text-anchor="middle" x="337" y="261" style="font-size:6.54;">jaxen_jaxen_1_1_beta_4_jar</text>
</g>
<!-- jdom_jdom_b10_jar -->
<g id="node9" class="node"><title>jdom_jdom_b10_jar</title>
<polygon style="fill:none;stroke:black;" points="485,243 424,243 424,259 485,259 485,243"/>
<text text-anchor="middle" x="454" y="253" style="font-size:6.54;">jdom_jdom_b10_jar</text>
</g>
<!-- jaxen_jaxen_1_1_beta_4_jar&#45;&gt;jdom_jdom_b10_jar -->
<g id="edge6" class="edge"><title>jaxen_jaxen_1_1_beta_4_jar&#45;&gt;jdom_jdom_b10_jar</title>
<path style="fill:none;stroke:black;" d="M379,256C392,255 406,254 419,253"/>
<polygon style="fill:black;stroke:black;" points="419,252 424,253 419,255 419,252"/>
</g>
<!-- xerces_xmlParserAPIs_2_6_2_jar -->
<g id="node11" class="node"><title>xerces_xmlParserAPIs_2_6_2_jar</title>
<polygon style="fill:none;stroke:black;" points="503,189 406,189 406,206 503,206 503,189"/>
<text text-anchor="middle" x="454" y="200" style="font-size:6.54;">xerces_xmlParserAPIs_2_6_2_jar</text>
</g>
<!-- jaxen_jaxen_1_1_beta_4_jar&#45;&gt;xerces_xmlParserAPIs_2_6_2_jar -->
<g id="edge8" class="edge"><title>jaxen_jaxen_1_1_beta_4_jar&#45;&gt;xerces_xmlParserAPIs_2_6_2_jar</title>
<path style="fill:none;stroke:black;" d="M379,250C382,249 386,247 389,246 410,236 430,220 442,209"/>
<polygon style="fill:black;stroke:black;" points="441,207 446,206 443,210 441,207"/>
</g>
<!-- jaxen_jaxen_1_1_beta_4_jar&#45;&gt;xerces_xercesImpl_2_6_2_jar -->
<g id="edge88" class="edge"><title>jaxen_jaxen_1_1_beta_4_jar&#45;&gt;xerces_xercesImpl_2_6_2_jar</title>
<path style="fill:none;stroke:black;" d="M379,265C388,266 398,268 406,269"/>
<polygon style="fill:black;stroke:black;" points="406,268 411,270 406,271 406,268"/>
</g>
<!-- dom4j_dom4j_1_5_2_jar -->
<g id="node17" class="node"><title>dom4j_dom4j_1_5_2_jar</title>
<polygon style="fill:none;stroke:black;" points="268,290 194,290 194,307 268,307 268,290"/>
<text text-anchor="middle" x="231" y="301" style="font-size:6.54;">dom4j_dom4j_1_5_2_jar</text>
</g>
<!-- jaxen_jaxen_1_1_beta_4_jar&#45;&gt;dom4j_dom4j_1_5_2_jar -->
<g id="edge46" class="edge"><title>jaxen_jaxen_1_1_beta_4_jar&#45;&gt;dom4j_dom4j_1_5_2_jar</title>
<path style="fill:none;stroke:black;" d="M295,265C292,267 288,268 285,269 271,274 256,282 245,288"/>
<polygon style="fill:black;stroke:black;" points="246,289 241,290 244,286 246,289"/>
</g>
<!-- xom_xom_1_0b3_jar -->
<g id="node33" class="node"><title>xom_xom_1_0b3_jar</title>
<polygon style="fill:none;stroke:black;" points="486,164 423,164 423,180 486,180 486,164"/>
<text text-anchor="middle" x="454" y="174" style="font-size:6.54;">xom_xom_1_0b3_jar</text>
</g>
<!-- jaxen_jaxen_1_1_beta_4_jar&#45;&gt;xom_xom_1_0b3_jar -->
<g id="edge54" class="edge"><title>jaxen_jaxen_1_1_beta_4_jar&#45;&gt;xom_xom_1_0b3_jar</title>
<path style="fill:none;stroke:black;" d="M379,253C383,251 386,249 389,246 410,226 386,205 406,185 410,181 414,179 419,177"/>
<polygon style="fill:black;stroke:black;" points="418,175 423,175 419,178 418,175"/>
</g>
<!-- xalan_xalan_2_6_0_jar -->
<g id="node12" class="node"><title>xalan_xalan_2_6_0_jar</title>
<polygon style="fill:none;stroke:black;" points="603,113 534,113 534,130 603,130 603,113"/>
<text text-anchor="middle" x="568" y="124" style="font-size:6.54;">xalan_xalan_2_6_0_jar</text>
</g>
<!-- xalan_xalan_2_6_0_jar&#45;&gt;xml_apis_xml_apis_2_0_2_jar -->
<g id="edge10" class="edge"><title>xalan_xalan_2_6_0_jar&#45;&gt;xml_apis_xml_apis_2_0_2_jar</title>
<path style="fill:none;stroke:black;" d="M603,126C611,127 620,128 629,129"/>
<polygon style="fill:black;stroke:black;" points="629,127 634,129 629,130 629,127"/>
</g>
<!-- xerces_xercesImpl_2_6_0_jar -->
<g id="node35" class="node"><title>xerces_xercesImpl_2_6_0_jar</title>
<polygon style="fill:none;stroke:black;" points="721,101 635,101 635,117 721,117 721,101"/>
<text text-anchor="middle" x="678" y="111" style="font-size:6.54;">xerces_xercesImpl_2_6_0_jar</text>
</g>
<!-- xalan_xalan_2_6_0_jar&#45;&gt;xerces_xercesImpl_2_6_0_jar -->
<g id="edge34" class="edge"><title>xalan_xalan_2_6_0_jar&#45;&gt;xerces_xercesImpl_2_6_0_jar</title>
<path style="fill:none;stroke:black;" d="M603,117C612,116 621,116 630,115"/>
<polygon style="fill:black;stroke:black;" points="630,113 635,114 630,116 630,113"/>
</g>
<!-- dom4j_dom4j_1_5_2_jar&#45;&gt;msv_relaxngDatatype_20030807_jar -->
<g id="edge22" class="edge"><title>dom4j_dom4j_1_5_2_jar&#45;&gt;msv_relaxngDatatype_20030807_jar</title>
<path style="fill:none;stroke:black;" d="M234,290C241,274 258,239 285,221 285,220 287,219 288,219"/>
<polygon style="fill:black;stroke:black;" points="287,217 292,216 289,220 287,217"/>
</g>
<!-- dom4j_dom4j_1_5_2_jar&#45;&gt;jaxen_jaxen_1_1_beta_4_jar -->
<g id="edge16" class="edge"><title>dom4j_dom4j_1_5_2_jar&#45;&gt;jaxen_jaxen_1_1_beta_4_jar</title>
<path style="fill:none;stroke:black;" d="M255,290C264,286 275,281 285,278 294,274 304,271 313,268"/>
<polygon style="fill:black;stroke:black;" points="313,267 318,267 314,270 313,267"/>
</g>
<!-- dom4j_dom4j_1_5_2_jar&#45;&gt;xml_apis_xml_apis_2_0_2_jar -->
<g id="edge38" class="edge"><title>dom4j_dom4j_1_5_2_jar&#45;&gt;xml_apis_xml_apis_2_0_2_jar</title>
<path style="fill:none;stroke:black;" d="M268,300C354,302 564,303 617,260 654,230 670,173 676,147"/>
<polygon style="fill:black;stroke:black;" points="674,147 677,143 677,147 674,147"/>
</g>
<!-- dom4j_dom4j_1_5_2_jar&#45;&gt;xerces_xercesImpl_2_6_2_jar -->
<g id="edge86" class="edge"><title>dom4j_dom4j_1_5_2_jar&#45;&gt;xerces_xercesImpl_2_6_2_jar</title>
<path style="fill:none;stroke:black;" d="M268,293C273,292 279,292 285,291 326,286 373,283 406,280"/>
<polygon style="fill:black;stroke:black;" points="406,278 411,279 406,281 406,278"/>
</g>
<!-- dom4j_dom4j_1_5_2_jar&#45;&gt;stax_stax_api_1_0_jar -->
<g id="edge14" class="edge"><title>dom4j_dom4j_1_5_2_jar&#45;&gt;stax_stax_api_1_0_jar</title>
<path style="fill:none;stroke:black;" d="M242,290C250,284 260,275 268,267 276,258 275,252 285,246 289,243 294,241 299,239"/>
<polygon style="fill:black;stroke:black;" points="299,238 304,238 299,241 299,238"/>
</g>
<!-- dom4j_dom4j_1_5_2_jar&#45;&gt;jaxme_jaxme_api_0_3_jar -->
<g id="edge56" class="edge"><title>dom4j_dom4j_1_5_2_jar&#45;&gt;jaxme_jaxme_api_0_3_jar</title>
<path style="fill:none;stroke:black;" d="M268,306C276,307 285,309 293,311"/>
<polygon style="fill:black;stroke:black;" points="293,309 298,312 293,312 293,309"/>
</g>
<!-- dom4j_dom4j_1_5_2_jar&#45;&gt;xalan_xalan_2_5_1_jar -->
<g id="edge26" class="edge"><title>dom4j_dom4j_1_5_2_jar&#45;&gt;xalan_xalan_2_5_1_jar</title>
<path style="fill:none;stroke:black;" d="M242,307C253,314 269,325 285,332 289,334 293,335 298,336"/>
<polygon style="fill:black;stroke:black;" points="298,335 302,338 297,338 298,335"/>
</g>
<!-- dom4j_dom4j_1_5_2_jar&#45;&gt;xpp3_xpp3_1_1_3_3_jar -->
<g id="edge90" class="edge"><title>dom4j_dom4j_1_5_2_jar&#45;&gt;xpp3_xpp3_1_1_3_3_jar</title>
<path style="fill:none;stroke:black;" d="M236,307C245,320 263,344 285,357 288,359 292,361 296,362"/>
<polygon style="fill:black;stroke:black;" points="296,361 300,363 295,363 296,361"/>
</g>
<!-- dom4j_dom4j_1_5_2_jar&#45;&gt;msv_xsdlib_20030807_jar -->
<g id="edge40" class="edge"><title>dom4j_dom4j_1_5_2_jar&#45;&gt;msv_xsdlib_20030807_jar</title>
<path style="fill:none;stroke:black;" d="M234,307C240,324 257,363 285,382 287,384 291,386 294,387"/>
<polygon style="fill:black;stroke:black;" points="294,386 298,389 293,389 294,386"/>
</g>
<!-- dom4j_dom4j_1_5_2_jar&#45;&gt;stax_stax_ri_1_0_jar -->
<g id="edge48" class="edge"><title>dom4j_dom4j_1_5_2_jar&#45;&gt;stax_stax_ri_1_0_jar</title>
<path style="fill:none;stroke:black;" d="M232,307C237,327 251,381 285,407 289,411 295,414 301,416"/>
<polygon style="fill:black;stroke:black;" points="301,414 306,417 300,417 301,414"/>
</g>
<!-- dom4j_dom4j_1_5_2_jar&#45;&gt;pull_parser_pull_parser_2_jar -->
<g id="edge66" class="edge"><title>dom4j_dom4j_1_5_2_jar&#45;&gt;pull_parser_pull_parser_2_jar</title>
<path style="fill:none;stroke:black;" d="M232,307C234,331 245,398 285,433 286,434 287,435 289,436"/>
<polygon style="fill:black;stroke:black;" points="290,434 293,438 288,437 290,434"/>
</g>
<!-- dom4j_dom4j_1_5_2_jar&#45;&gt;junitperf_junitperf_1_8_jar -->
<g id="edge94" class="edge"><title>dom4j_dom4j_1_5_2_jar&#45;&gt;junitperf_junitperf_1_8_jar</title>
<path style="fill:none;stroke:black;" d="M233,307C239,337 262,437 285,458 287,460 289,462 292,463"/>
<polygon style="fill:black;stroke:black;" points="293,462 297,465 292,465 293,462"/>
</g>
<!-- jaxen_jaxen_1_1_beta_6_jar&#45;&gt;jdom_jdom_1_0_jar -->
<g id="edge20" class="edge"><title>jaxen_jaxen_1_1_beta_6_jar&#45;&gt;jdom_jdom_1_0_jar</title>
<path style="fill:none;stroke:black;" d="M147,169C165,157 196,134 215,121"/>
<polygon style="fill:black;stroke:black;" points="214,119 219,118 216,122 214,119"/>
</g>
<!-- jaxen_jaxen_1_1_beta_6_jar&#45;&gt;xerces_xmlParserAPIs_2_6_2_jar -->
<g id="edge42" class="edge"><title>jaxen_jaxen_1_1_beta_6_jar&#45;&gt;xerces_xmlParserAPIs_2_6_2_jar</title>
<path style="fill:none;stroke:black;" d="M177,175C228,172 315,170 389,180 397,181 398,183 406,185 410,186 413,186 417,187"/>
<polygon style="fill:black;stroke:black;" points="417,186 421,189 416,189 417,186"/>
</g>
<!-- jaxen_jaxen_1_1_beta_6_jar&#45;&gt;xerces_xercesImpl_2_6_2_jar -->
<g id="edge18" class="edge"><title>jaxen_jaxen_1_1_beta_6_jar&#45;&gt;xerces_xercesImpl_2_6_2_jar</title>
<path style="fill:none;stroke:black;" d="M177,179C247,182 381,189 389,195 413,216 384,242 406,264 406,264 407,264 407,265"/>
<polygon style="fill:black;stroke:black;" points="408,264 411,268 406,266 408,264"/>
</g>
<!-- jaxen_jaxen_1_1_beta_6_jar&#45;&gt;dom4j_dom4j_1_5_2_jar -->
<g id="edge68" class="edge"><title>jaxen_jaxen_1_1_beta_6_jar&#45;&gt;dom4j_dom4j_1_5_2_jar</title>
<path style="fill:none;stroke:black;" d="M142,186C158,207 202,262 221,286"/>
<polygon style="fill:black;stroke:black;" points="223,285 224,290 220,287 223,285"/>
</g>
<!-- jaxen_jaxen_1_1_beta_6_jar&#45;&gt;xom_xom_1_0b3_jar -->
<g id="edge32" class="edge"><title>jaxen_jaxen_1_1_beta_6_jar&#45;&gt;xom_xom_1_0b3_jar</title>
<path style="fill:none;stroke:black;" d="M140,169C156,142 211,57 285,34 329,20 350,9 389,34 433,62 448,130 453,159"/>
<polygon style="fill:black;stroke:black;" points="454,159 454,164 452,159 454,159"/>
</g>
<!-- xom_xom_1_0b3_jar&#45;&gt;xalan_xalan_2_6_0_jar -->
<g id="edge92" class="edge"><title>xom_xom_1_0b3_jar&#45;&gt;xalan_xalan_2_6_0_jar</title>
<path style="fill:none;stroke:black;" d="M467,164C480,155 501,143 520,134 523,133 526,132 529,131"/>
<polygon style="fill:black;stroke:black;" points="529,130 534,130 530,132 529,130"/>
</g>
<!-- servletapi_servletapi_2_4_jar -->
<g id="node37" class="node"><title>servletapi_servletapi_2_4_jar</title>
<polygon style="fill:none;stroke:black;" points="611,214 526,214 526,231 611,231 611,214"/>
<text text-anchor="middle" x="568" y="225" style="font-size:6.54;">servletapi_servletapi_2_4_jar</text>
</g>
<!-- xom_xom_1_0b3_jar&#45;&gt;servletapi_servletapi_2_4_jar -->
<g id="edge36" class="edge"><title>xom_xom_1_0b3_jar&#45;&gt;servletapi_servletapi_2_4_jar</title>
<path style="fill:none;stroke:black;" d="M486,177C492,179 498,181 503,185 514,193 509,202 520,210 521,210 522,211 523,212"/>
<polygon style="fill:black;stroke:black;" points="524,210 527,214 522,213 524,210"/>
</g>
<!-- icu4j_icu4j_2_6_1_jar -->
<g id="node43" class="node"><title>icu4j_icu4j_2_6_1_jar</title>
<polygon style="fill:none;stroke:black;" points="602,239 535,239 535,256 602,256 602,239"/>
<text text-anchor="middle" x="568" y="250" style="font-size:6.54;">icu4j_icu4j_2_6_1_jar</text>
</g>
<!-- xom_xom_1_0b3_jar&#45;&gt;icu4j_icu4j_2_6_1_jar -->
<g id="edge44" class="edge"><title>xom_xom_1_0b3_jar&#45;&gt;icu4j_icu4j_2_6_1_jar</title>
<path style="fill:none;stroke:black;" d="M486,176C492,178 498,180 503,185 520,201 503,219 520,235 523,238 526,240 531,242"/>
<polygon style="fill:black;stroke:black;" points="531,240 535,243 530,243 531,240"/>
</g>
<!-- xerces_xercesImpl_2_2_1_jar -->
<g id="node58" class="node"><title>xerces_xercesImpl_2_2_1_jar</title>
<polygon style="fill:none;stroke:black;" points="611,138 525,138 525,155 611,155 611,138"/>
<text text-anchor="middle" x="568" y="149" style="font-size:6.54;">xerces_xercesImpl_2_2_1_jar</text>
</g>
<!-- xom_xom_1_0b3_jar&#45;&gt;xerces_xercesImpl_2_2_1_jar -->
<g id="edge64" class="edge"><title>xom_xom_1_0b3_jar&#45;&gt;xerces_xercesImpl_2_2_1_jar</title>
<path style="fill:none;stroke:black;" d="M486,165C498,162 512,159 525,156"/>
<polygon style="fill:black;stroke:black;" points="525,155 530,155 526,158 525,155"/>
</g>
<!-- tagsoup_tagsoup_0_9_7_jar -->
<g id="node64" class="node"><title>tagsoup_tagsoup_0_9_7_jar</title>
<polygon style="fill:none;stroke:black;" points="610,164 527,164 527,180 610,180 610,164"/>
<text text-anchor="middle" x="568" y="174" style="font-size:6.54;">tagsoup_tagsoup_0_9_7_jar</text>
</g>
<!-- xom_xom_1_0b3_jar&#45;&gt;tagsoup_tagsoup_0_9_7_jar -->
<g id="edge74" class="edge"><title>xom_xom_1_0b3_jar&#45;&gt;tagsoup_tagsoup_0_9_7_jar</title>
<path style="fill:none;stroke:black;" d="M486,172C497,172 511,172 523,172"/>
<polygon style="fill:black;stroke:black;" points="523,170 527,172 523,173 523,170"/>
</g>
<!-- xerces_xmlParserAPIs_2_6_1_jar -->
<g id="node66" class="node"><title>xerces_xmlParserAPIs_2_6_1_jar</title>
<polygon style="fill:none;stroke:black;" points="617,189 520,189 520,206 617,206 617,189"/>
<text text-anchor="middle" x="568" y="200" style="font-size:6.54;">xerces_xmlParserAPIs_2_6_1_jar</text>
</g>
<!-- xom_xom_1_0b3_jar&#45;&gt;xerces_xmlParserAPIs_2_6_1_jar -->
<g id="edge76" class="edge"><title>xom_xom_1_0b3_jar&#45;&gt;xerces_xmlParserAPIs_2_6_1_jar</title>
<path style="fill:none;stroke:black;" d="M486,179C498,181 512,185 525,188"/>
<polygon style="fill:black;stroke:black;" points="526,186 530,189 525,189 526,186"/>
</g>
</g>
</svg>
